# xmcd CD database file
#
# Track frame offsets:
#	150
#	27261
#	49144
#	63547
#	77972
#	96848
#	116766
#	132608
#	157516
#	174237
#	192298
#	211610
#
# Disc length: 3061 seconds
#
# Revision: 0
# Processed by: cddbd v1.5.1PL0 Copyright (c) Steve Scherf et al.
# Submitted via: CDex 1.50beta9
#
DISCID=9c0bf30c
DTITLE=ACCORDION - COUNTRY 'N' IRISH
DYEAR=1900
DGENRE=Country
TTITLE0=Medley - Country Road - Sea Of hearbreak - Blanket On The Ground - Lonesome Me - Me and bobby McGee
TTITLE1=Medley - Botany Bay - A Place In The Choir - The Irish Rover - Farewell To Carlingford - Lowland Low
TTITLE2=Medley - When Irish Eyes are Smiling - Dublin In The Rare Old Times - Fields Of Athenry
TTITLE3=Medley - These Are My Mountains - Black Velvet Band - Wild Rover
TTITLE4=Medley - I'll Take You Home Again Kathleen - The Town I Love So Well
TTITLE5=Medley - Tom Dooley - Morning Glory - Have A Drink On Me - Maggie May
TTITLE6=Medley - All For Me Grog - Home Boys Home - Backs Of The Roses
TTITLE7=Medley - Walkin' After Midnight - I Fall To Pieces - Crazy - Someday You'll Want Me To Want You - Have You Ever Been Lonely 
TTITLE8=Medley - Isle Of Innishfree - Nobody's Child - When You Were Sweet Sixteen - Danny Boy 
TTITLE9=Medley - When Your Old Wedding Ring Was New - Pal Of My Cradle Days - Rose Of Tralee - Mountains Of Mourne
TTITLE10=Medley - Maggie - Dirty Old Town - Crystal Chandeliers - Whistling - Whisling Gypas Rover
TTITLE11=Medley - Leaving Of Liverpool - Roving - Greenland Fisheries - Farewell My friends 
EXTD=
EXTT0=
EXTT1=
EXTT2=
EXTT3=
EXTT4=
EXTT5=
EXTT6=
EXTT7=
EXTT8=
EXTT9=
EXTT10=
EXTT11=
PLAYORDER=
